<svg width="502" height="93" viewBox="0 0 502 93" fill="none" xmlns="http://www.w3.org/2000/svg">
<path d="M2.5 7L0.5 89L12 81.5L18 48L26 46L28.5 81.5L38 79L35 17.5L26 20V36.5H15V4.5L2.5 7Z" fill="#F4B9BE"/>
<path d="M48 33L43.5 78H54.5V39L48 33Z" fill="#F55230"/>
<circle cx="54" cy="23" r="6" fill="#F55230"/>
<path d="M60.5 73H67V77L63 82.5V77L60.5 73Z" fill="#FEF750"/>
<path d="M81.5 32.5L83.5 78H92L89.5 28.5L81.5 32.5Z" fill="#EF5432" fill-opacity="0.63"/>
<path d="M97.5 19.5V24H101L97.5 28L103.5 26.5V22L102 18.5L97.5 19.5Z" fill="#5F65F0"/>
<path d="M222 28L218.5 76H228.5V41.5L243.5 83.5L250.5 81.5L255.5 20.5H248L245 61.5L231 23.5L222 28Z" fill="#EAB1B1"/>
<path fill-rule="evenodd" clip-rule="evenodd" d="M160.5 76L175 3.5L187.5 0L201.25 40.75L208.125 61.125L215 81.5H196L187.5 41.5H180L178 81.5L160.5 76ZM178 30L180 20.5H185L187.5 30H178Z" fill="#9E8AE6"/>
<path d="M282.5 23.5L268 25.5L257 51.5L266.5 81.5L296.5 73.5V58.5L282.5 51.5L280 61.5L287 65L278.5 67.5L268 65L266.5 51.5L270.5 39H285.5V45L291 43V30L282.5 23.5Z" fill="#A5C681"/>
<path d="M302.5 72C302.5 72 298.6 29.9 299 27.5L326 19.5L326 31.5L308.5 33V43L322.5 40L326 47.5L308.5 50L310 60L326 58.5L331.5 65.5L302.5 72Z" fill="#5D8026"/>
<path d="M339.5 24L331 73.5L365 81L366 67L339.5 64.5L351.5 22L339.5 24Z" fill="#62C3C9"/>
<path d="M370.5 26.5V72L379.5 76V30.5L370.5 26.5Z" fill="#2091B3"/>
<path d="M382.5 17.5C382.5 21.0899 379.59 24 376 24C372.41 24 369.5 21.0899 369.5 17.5C369.5 13.9101 372.41 11 376 11C379.59 11 382.5 13.9101 382.5 17.5Z" fill="#2091B3"/>
<path d="M390.5 25.5L384.5 87L394 85.5L395.5 43L411.5 87L423.5 85.5V20.5L415 22.5L417.5 73L397.5 20.5L390.5 25.5Z" fill="#FFE81D"/>
<path fill-rule="evenodd" clip-rule="evenodd" d="M446.5 12.5C445.3 15.3 425.5 75.5 425.5 75.5L441.5 77L446.5 47.5H457.5L470.5 73L484 66L457.5 11.5L446.5 12.5ZM449 39.5L451 32L453.5 22.5L457.5 38L449 39.5Z" fill="#EF1212" fill-opacity="0.6"/>
<path d="M104.5 77.5L111.5 37L115.5 37.5L120.5 55L126 35.5L132 34L142.5 81H130L126 56.5L121.5 64.5L115.5 58L113 77.5H104.5Z" fill="#F4C871"/>
<path d="M494 5.5L491.5 69.5H500V0.5L494 5.5Z" fill="#585FFF"/>
<circle cx="495.5" cy="86.5" r="6.5" fill="#585FFF"/>
</svg>
